<svg xmlns="http://www.w3.org/2000/svg" width="786" height="786" viewBox="0 0 786 786" data-output-width="668" data-output-height="786">
<style>
@font-face {
  font-family: 'Preview Noto Sans';
  src: url('file:///Users/almariano1/Downloads/project-on-point/lib/EpdFont/builtinFonts/source/NotoSans/NotoSans-Regular.ttf');
  font-weight: 400;
}
@font-face {
  font-family: 'Preview Noto Sans';
  src: url('file:///Users/almariano1/Downloads/project-on-point/lib/EpdFont/builtinFonts/source/NotoSans/NotoSans-Bold.ttf');
  font-weight: 700;
}
@font-face {
  font-family: 'Preview Ubuntu';
  src: url('file:///Users/almariano1/Downloads/project-on-point/lib/EpdFont/builtinFonts/source/Ubuntu/Ubuntu-Regular.ttf');
  font-weight: 400;
}
@font-face {
  font-family: 'Preview Ubuntu';
  src: url('file:///Users/almariano1/Downloads/project-on-point/lib/EpdFont/builtinFonts/source/Ubuntu/Ubuntu-Bold.ttf');
  font-weight: 700;
}
text { font-family: 'Preview Noto Sans', sans-serif; }
.utility { font-family: 'Preview Ubuntu', sans-serif; }
</style>
<rect width="786" height="786" fill="#fff"/>
<g transform="translate(59 0)">
<text x="34" y="48" font-size="25" font-weight="700" fill="#000" text-anchor="start" letter-spacing="0.3">RECOMMENDED DIRECTION — REQUIRED STATES</text>
<rect x="31" y="73" width="178" height="294" fill="#000"/>
<rect x="34" y="76" width="172" height="288" fill="#fff"/>
<g transform="translate(34 76) scale(0.36)"><text class="utility" x="24" y="31" font-size="15" font-weight="700" fill="#000" text-anchor="start" letter-spacing="2.2">ON POINT</text>
<text class="utility" x="456" y="31" font-size="15" font-weight="700" fill="#000" text-anchor="end" letter-spacing="0.8">21:12</text>
<rect x="0" y="54" width="480" height="136" fill="#000"/>
<text x="24" y="92" font-size="29" font-weight="700" fill="#fff" text-anchor="start" letter-spacing="0.5">TRINOMA</text>
<line x1="35" y1="105" x2="35" y2="132" stroke="#fff" stroke-width="4"/>
<polygon points="28,126 42,126 35,136" fill="#fff"/>
<text x="58" y="156" font-size="29" font-weight="700" fill="#fff" text-anchor="start" letter-spacing="0.5">BALAGTAS</text>
<text class="utility" x="456" y="171" font-size="10" font-weight="700" fill="#fff" text-anchor="end" letter-spacing="1.6">PROVISIONAL</text>
<text class="utility" x="24" y="232" font-size="12" font-weight="700" fill="#000" text-anchor="start" letter-spacing="1.4">UNTIL SCHEDULED DEPARTURE</text>
<rect x="68" y="264" width="41" height="41" fill="#000"/>
<rect x="24" y="308" width="41" height="41" fill="#000"/>
<rect x="68" y="308" width="41" height="41" fill="#000"/>
<rect x="68" y="352" width="41" height="41" fill="#000"/>
<rect x="68" y="396" width="41" height="41" fill="#000"/>
<rect x="24" y="440" width="41" height="41" fill="#000"/>
<rect x="68" y="440" width="41" height="41" fill="#000"/>
<rect x="112" y="440" width="41" height="41" fill="#000"/>
<rect x="178" y="264" width="41" height="41" fill="#000"/>
<rect x="222" y="264" width="41" height="41" fill="#000"/>
<rect x="266" y="264" width="41" height="41" fill="#000"/>
<rect x="178" y="308" width="41" height="41" fill="#000"/>
<rect x="266" y="308" width="41" height="41" fill="#000"/>
<rect x="178" y="352" width="41" height="41" fill="#000"/>
<rect x="222" y="352" width="41" height="41" fill="#000"/>
<rect x="266" y="352" width="41" height="41" fill="#000"/>
<rect x="178" y="396" width="41" height="41" fill="#000"/>
<rect x="266" y="396" width="41" height="41" fill="#000"/>
<rect x="178" y="440" width="41" height="41" fill="#000"/>
<rect x="222" y="440" width="41" height="41" fill="#000"/>
<rect x="266" y="440" width="41" height="41" fill="#000"/>
<text class="utility" x="436" y="459" font-size="15" font-weight="700" fill="#000" text-anchor="middle" letter-spacing="2.0" transform="rotate(-90 436 459)">MIN</text>
<line x1="376" y1="282" x2="440" y2="282" stroke="#000" stroke-width="4"/>
<line x1="376" y1="398" x2="440" y2="398" stroke="#000" stroke-width="4"/>
<line x1="376" y1="282" x2="408" y2="340" stroke="#000" stroke-width="4"/>
<line x1="440" y1="282" x2="408" y2="340" stroke="#000" stroke-width="4"/>
<line x1="408" y1="340" x2="376" y2="398" stroke="#000" stroke-width="4"/>
<line x1="408" y1="340" x2="440" y2="398" stroke="#000" stroke-width="4"/>
<polygon points="408,335 392,308 424,308" fill="#000"/>
<polygon points="408,375 398,393 418,393" fill="#000"/>
<line x1="24" y1="510" x2="456" y2="510" stroke="#000" stroke-width="5"/>
<text class="utility" x="24" y="542" font-size="11" font-weight="700" fill="#000" text-anchor="start" letter-spacing="1.3">SCHEDULED DEPARTURE</text>
<text x="24" y="590" font-size="42" font-weight="700" fill="#000" text-anchor="start" letter-spacing="-1">21:30</text>
<text class="utility" x="236" y="542" font-size="11" font-weight="700" fill="#000" text-anchor="start" letter-spacing="1.3">FOLLOWING</text>
<text x="236" y="576" font-size="21" font-weight="700" fill="#000" text-anchor="start" letter-spacing="0">22:00</text>
<text x="236" y="611" font-size="18" font-weight="700" fill="#000" text-anchor="start" letter-spacing="0">22:30 LAST</text>
<text class="utility" x="24" y="666" font-size="12" font-weight="700" fill="#000" text-anchor="start" letter-spacing="1.2">30 MIN INTERVAL</text>
<line x1="24" y1="718" x2="456" y2="718" stroke="#000" stroke-width="3"/>
<text class="utility" x="24" y="746" font-size="12" font-weight="700" fill="#000" text-anchor="start" letter-spacing="1.1">WED 16 SEP</text>
<text class="utility" x="456" y="746" font-size="11" font-weight="700" fill="#000" text-anchor="end" letter-spacing="0.8">LEFT / RIGHT  SWITCH</text>
<text class="utility" x="24" y="778" font-size="10" font-weight="400" fill="#000" text-anchor="start" letter-spacing="1.0">SCHEDULED TIMETABLE • UTC+8</text>
<text class="utility" x="456" y="778" font-size="10" font-weight="700" fill="#000" text-anchor="end" letter-spacing="1.2">HOME</text></g>
<text class="utility" x="34" y="392" font-size="14" font-weight="700" fill="#000" text-anchor="start" letter-spacing="0.6">NORMAL</text>
<rect x="245" y="73" width="178" height="294" fill="#000"/>
<rect x="248" y="76" width="172" height="288" fill="#fff"/>
<g transform="translate(248 76) scale(0.36)"><text class="utility" x="24" y="31" font-size="15" font-weight="700" fill="#000" text-anchor="start" letter-spacing="2.2">ON POINT</text>
<text class="utility" x="456" y="31" font-size="15" font-weight="700" fill="#000" text-anchor="end" letter-spacing="0.8">21:26</text>
<rect x="0" y="54" width="480" height="136" fill="#000"/>
<text x="24" y="92" font-size="29" font-weight="700" fill="#fff" text-anchor="start" letter-spacing="0.5">TRINOMA</text>
<line x1="35" y1="105" x2="35" y2="132" stroke="#fff" stroke-width="4"/>
<polygon points="28,126 42,126 35,136" fill="#fff"/>
<text x="58" y="156" font-size="29" font-weight="700" fill="#fff" text-anchor="start" letter-spacing="0.5">BALAGTAS</text>
<text class="utility" x="456" y="171" font-size="10" font-weight="700" fill="#fff" text-anchor="end" letter-spacing="1.6">PROVISIONAL</text>
<text class="utility" x="24" y="232" font-size="12" font-weight="700" fill="#000" text-anchor="start" letter-spacing="1.4">UNTIL SCHEDULED DEPARTURE</text>
<rect x="24" y="264" width="41" height="41" fill="#000"/>
<rect x="68" y="264" width="41" height="41" fill="#000"/>
<rect x="112" y="264" width="41" height="41" fill="#000"/>
<rect x="24" y="308" width="41" height="41" fill="#000"/>
<rect x="112" y="308" width="41" height="41" fill="#000"/>
<rect x="24" y="352" width="41" height="41" fill="#000"/>
<rect x="112" y="352" width="41" height="41" fill="#000"/>
<rect x="24" y="396" width="41" height="41" fill="#000"/>
<rect x="112" y="396" width="41" height="41" fill="#000"/>
<rect x="24" y="440" width="41" height="41" fill="#000"/>
<rect x="68" y="440" width="41" height="41" fill="#000"/>
<rect x="112" y="440" width="41" height="41" fill="#000"/>
<rect x="178" y="264" width="41" height="41" fill="#000"/>
<rect x="266" y="264" width="41" height="41" fill="#000"/>
<rect x="178" y="308" width="41" height="41" fill="#000"/>
<rect x="266" y="308" width="41" height="41" fill="#000"/>
<rect x="178" y="352" width="41" height="41" fill="#000"/>
<rect x="222" y="352" width="41" height="41" fill="#000"/>
<rect x="266" y="352" width="41" height="41" fill="#000"/>
<rect x="266" y="396" width="41" height="41" fill="#000"/>
<rect x="266" y="440" width="41" height="41" fill="#000"/>
<text class="utility" x="436" y="459" font-size="15" font-weight="700" fill="#000" text-anchor="middle" letter-spacing="2.0" transform="rotate(-90 436 459)">MIN</text>
<line x1="376" y1="282" x2="440" y2="282" stroke="#000" stroke-width="4"/>
<line x1="376" y1="398" x2="440" y2="398" stroke="#000" stroke-width="4"/>
<line x1="376" y1="282" x2="408" y2="340" stroke="#000" stroke-width="4"/>
<line x1="440" y1="282" x2="408" y2="340" stroke="#000" stroke-width="4"/>
<line x1="408" y1="340" x2="376" y2="398" stroke="#000" stroke-width="4"/>
<line x1="408" y1="340" x2="440" y2="398" stroke="#000" stroke-width="4"/>
<polygon points="408,335 403,326 413,326" fill="#000"/>
<polygon points="408,357 387,393 429,393" fill="#000"/>
<line x1="24" y1="510" x2="456" y2="510" stroke="#000" stroke-width="5"/>
<text class="utility" x="24" y="542" font-size="11" font-weight="700" fill="#000" text-anchor="start" letter-spacing="1.3">SCHEDULED DEPARTURE</text>
<text x="24" y="590" font-size="42" font-weight="700" fill="#000" text-anchor="start" letter-spacing="-1">21:30</text>
<text class="utility" x="236" y="542" font-size="11" font-weight="700" fill="#000" text-anchor="start" letter-spacing="1.3">FOLLOWING</text>
<text x="236" y="576" font-size="21" font-weight="700" fill="#000" text-anchor="start" letter-spacing="0">22:00</text>
<text x="236" y="611" font-size="18" font-weight="700" fill="#000" text-anchor="start" letter-spacing="0">22:30 LAST</text>
<text class="utility" x="24" y="666" font-size="12" font-weight="700" fill="#000" text-anchor="start" letter-spacing="1.2">30 MIN INTERVAL</text>
<line x1="24" y1="718" x2="456" y2="718" stroke="#000" stroke-width="3"/>
<text class="utility" x="24" y="746" font-size="12" font-weight="700" fill="#000" text-anchor="start" letter-spacing="1.1">WED 16 SEP</text>
<text class="utility" x="456" y="746" font-size="11" font-weight="700" fill="#000" text-anchor="end" letter-spacing="0.8">LEFT / RIGHT  SWITCH</text>
<text class="utility" x="24" y="778" font-size="10" font-weight="400" fill="#000" text-anchor="start" letter-spacing="1.0">SCHEDULED TIMETABLE • UTC+8</text>
<text class="utility" x="456" y="778" font-size="10" font-weight="700" fill="#000" text-anchor="end" letter-spacing="1.2">HOME</text></g>
<text class="utility" x="248" y="392" font-size="14" font-weight="700" fill="#000" text-anchor="start" letter-spacing="0.6">NEAR</text>
<rect x="459" y="73" width="178" height="294" fill="#000"/>
<rect x="462" y="76" width="172" height="288" fill="#fff"/>
<g transform="translate(462 76) scale(0.36)"><text class="utility" x="24" y="31" font-size="15" font-weight="700" fill="#000" text-anchor="start" letter-spacing="2.2">ON POINT</text>
<text class="utility" x="456" y="31" font-size="15" font-weight="700" fill="#000" text-anchor="end" letter-spacing="0.8">22:12</text>
<rect x="0" y="54" width="480" height="136" fill="#000"/>
<text x="24" y="92" font-size="29" font-weight="700" fill="#fff" text-anchor="start" letter-spacing="0.5">TRINOMA</text>
<line x1="35" y1="105" x2="35" y2="132" stroke="#fff" stroke-width="4"/>
<polygon points="28,126 42,126 35,136" fill="#fff"/>
<text x="58" y="156" font-size="29" font-weight="700" fill="#fff" text-anchor="start" letter-spacing="0.5">BALAGTAS</text>
<text class="utility" x="456" y="171" font-size="10" font-weight="700" fill="#fff" text-anchor="end" letter-spacing="1.6">PROVISIONAL</text>
<rect x="24" y="214" width="148" height="28" fill="#000"/>
<text class="utility" x="36" y="233" font-size="11" font-weight="700" fill="#fff" text-anchor="start" letter-spacing="1.2">LAST SERVICE</text>
<rect x="68" y="264" width="41" height="41" fill="#000"/>
<rect x="24" y="308" width="41" height="41" fill="#000"/>
<rect x="68" y="308" width="41" height="41" fill="#000"/>
<rect x="68" y="352" width="41" height="41" fill="#000"/>
<rect x="68" y="396" width="41" height="41" fill="#000"/>
<rect x="24" y="440" width="41" height="41" fill="#000"/>
<rect x="68" y="440" width="41" height="41" fill="#000"/>
<rect x="112" y="440" width="41" height="41" fill="#000"/>
<rect x="178" y="264" width="41" height="41" fill="#000"/>
<rect x="222" y="264" width="41" height="41" fill="#000"/>
<rect x="266" y="264" width="41" height="41" fill="#000"/>
<rect x="178" y="308" width="41" height="41" fill="#000"/>
<rect x="266" y="308" width="41" height="41" fill="#000"/>
<rect x="178" y="352" width="41" height="41" fill="#000"/>
<rect x="222" y="352" width="41" height="41" fill="#000"/>
<rect x="266" y="352" width="41" height="41" fill="#000"/>
<rect x="178" y="396" width="41" height="41" fill="#000"/>
<rect x="266" y="396" width="41" height="41" fill="#000"/>
<rect x="178" y="440" width="41" height="41" fill="#000"/>
<rect x="222" y="440" width="41" height="41" fill="#000"/>
<rect x="266" y="440" width="41" height="41" fill="#000"/>
<text class="utility" x="436" y="459" font-size="15" font-weight="700" fill="#000" text-anchor="middle" letter-spacing="2.0" transform="rotate(-90 436 459)">MIN</text>
<line x1="376" y1="282" x2="440" y2="282" stroke="#000" stroke-width="4"/>
<line x1="376" y1="398" x2="440" y2="398" stroke="#000" stroke-width="4"/>
<line x1="376" y1="282" x2="408" y2="340" stroke="#000" stroke-width="4"/>
<line x1="440" y1="282" x2="408" y2="340" stroke="#000" stroke-width="4"/>
<line x1="408" y1="340" x2="376" y2="398" stroke="#000" stroke-width="4"/>
<line x1="408" y1="340" x2="440" y2="398" stroke="#000" stroke-width="4"/>
<polygon points="408,335 392,308 424,308" fill="#000"/>
<polygon points="408,375 398,393 418,393" fill="#000"/>
<line x1="24" y1="510" x2="456" y2="510" stroke="#000" stroke-width="5"/>
<text class="utility" x="24" y="542" font-size="11" font-weight="700" fill="#000" text-anchor="start" letter-spacing="1.3">SCHEDULED DEPARTURE</text>
<text x="24" y="590" font-size="42" font-weight="700" fill="#000" text-anchor="start" letter-spacing="-1">22:30</text>
<text class="utility" x="236" y="542" font-size="11" font-weight="700" fill="#000" text-anchor="start" letter-spacing="1.3">FOLLOWING</text>
<text x="236" y="584" font-size="24" font-weight="700" fill="#000" text-anchor="start" letter-spacing="0">—</text>
<text class="utility" x="24" y="666" font-size="12" font-weight="700" fill="#000" text-anchor="start" letter-spacing="1.2">FINAL DEPARTURE TODAY</text>
<line x1="24" y1="718" x2="456" y2="718" stroke="#000" stroke-width="3"/>
<text class="utility" x="24" y="746" font-size="12" font-weight="700" fill="#000" text-anchor="start" letter-spacing="1.1">WED 16 SEP</text>
<text class="utility" x="456" y="746" font-size="11" font-weight="700" fill="#000" text-anchor="end" letter-spacing="0.8">LEFT / RIGHT  SWITCH</text>
<text class="utility" x="24" y="778" font-size="10" font-weight="400" fill="#000" text-anchor="start" letter-spacing="1.0">SCHEDULED TIMETABLE • UTC+8</text>
<text class="utility" x="456" y="778" font-size="10" font-weight="700" fill="#000" text-anchor="end" letter-spacing="1.2">HOME</text></g>
<text class="utility" x="462" y="392" font-size="14" font-weight="700" fill="#000" text-anchor="start" letter-spacing="0.6">LAST</text>
<rect x="31" y="427" width="178" height="294" fill="#000"/>
<rect x="34" y="430" width="172" height="288" fill="#fff"/>
<g transform="translate(34 430) scale(0.36)"><text class="utility" x="24" y="31" font-size="15" font-weight="700" fill="#000" text-anchor="start" letter-spacing="2.2">ON POINT</text>
<text class="utility" x="456" y="31" font-size="15" font-weight="700" fill="#000" text-anchor="end" letter-spacing="0.8">03:50</text>
<rect x="0" y="54" width="480" height="136" fill="#000"/>
<text x="24" y="92" font-size="29" font-weight="700" fill="#fff" text-anchor="start" letter-spacing="0.5">BALAGTAS</text>
<line x1="35" y1="105" x2="35" y2="132" stroke="#fff" stroke-width="4"/>
<polygon points="28,126 42,126 35,136" fill="#fff"/>
<text x="58" y="156" font-size="29" font-weight="700" fill="#fff" text-anchor="start" letter-spacing="0.5">TRINOMA</text>
<text class="utility" x="456" y="171" font-size="10" font-weight="700" fill="#fff" text-anchor="end" letter-spacing="1.6">PROVISIONAL</text>
<rect x="24" y="214" width="148" height="28" fill="#000"/>
<text class="utility" x="36" y="233" font-size="11" font-weight="700" fill="#fff" text-anchor="start" letter-spacing="1.2">FIRST SERVICE</text>
<rect x="24" y="264" width="41" height="41" fill="#000"/>
<rect x="112" y="264" width="41" height="41" fill="#000"/>
<rect x="24" y="308" width="41" height="41" fill="#000"/>
<rect x="112" y="308" width="41" height="41" fill="#000"/>
<rect x="24" y="352" width="41" height="41" fill="#000"/>
<rect x="68" y="352" width="41" height="41" fill="#000"/>
<rect x="112" y="352" width="41" height="41" fill="#000"/>
<rect x="112" y="396" width="41" height="41" fill="#000"/>
<rect x="112" y="440" width="41" height="41" fill="#000"/>
<rect x="178" y="264" width="41" height="41" fill="#000"/>
<rect x="222" y="264" width="41" height="41" fill="#000"/>
<rect x="266" y="264" width="41" height="41" fill="#000"/>
<rect x="178" y="308" width="41" height="41" fill="#000"/>
<rect x="266" y="308" width="41" height="41" fill="#000"/>
<rect x="178" y="352" width="41" height="41" fill="#000"/>
<rect x="266" y="352" width="41" height="41" fill="#000"/>
<rect x="178" y="396" width="41" height="41" fill="#000"/>
<rect x="266" y="396" width="41" height="41" fill="#000"/>
<rect x="178" y="440" width="41" height="41" fill="#000"/>
<rect x="222" y="440" width="41" height="41" fill="#000"/>
<rect x="266" y="440" width="41" height="41" fill="#000"/>
<text class="utility" x="436" y="459" font-size="15" font-weight="700" fill="#000" text-anchor="middle" letter-spacing="2.0" transform="rotate(-90 436 459)">MIN</text>
<line x1="376" y1="282" x2="440" y2="282" stroke="#000" stroke-width="4"/>
<line x1="376" y1="398" x2="440" y2="398" stroke="#000" stroke-width="4"/>
<line x1="376" y1="282" x2="408" y2="340" stroke="#000" stroke-width="4"/>
<line x1="440" y1="282" x2="408" y2="340" stroke="#000" stroke-width="4"/>
<line x1="408" y1="340" x2="376" y2="398" stroke="#000" stroke-width="4"/>
<line x1="408" y1="340" x2="440" y2="398" stroke="#000" stroke-width="4"/>
<polygon points="408,335 387,299 429,299" fill="#000"/>
<polygon points="408,384 403,393 413,393" fill="#000"/>
<line x1="24" y1="510" x2="456" y2="510" stroke="#000" stroke-width="5"/>
<text class="utility" x="24" y="542" font-size="11" font-weight="700" fill="#000" text-anchor="start" letter-spacing="1.3">SCHEDULED DEPARTURE</text>
<text x="24" y="590" font-size="42" font-weight="700" fill="#000" text-anchor="start" letter-spacing="-1">04:30</text>
<text class="utility" x="236" y="542" font-size="11" font-weight="700" fill="#000" text-anchor="start" letter-spacing="1.3">FOLLOWING</text>
<text x="236" y="576" font-size="21" font-weight="700" fill="#000" text-anchor="start" letter-spacing="0">05:00</text>
<text x="236" y="611" font-size="21" font-weight="700" fill="#000" text-anchor="start" letter-spacing="0">05:30</text>
<text class="utility" x="24" y="666" font-size="12" font-weight="700" fill="#000" text-anchor="start" letter-spacing="1.2">SERVICE DAY BEGINS</text>
<line x1="24" y1="718" x2="456" y2="718" stroke="#000" stroke-width="3"/>
<text class="utility" x="24" y="746" font-size="12" font-weight="700" fill="#000" text-anchor="start" letter-spacing="1.1">WED 16 SEP</text>
<text class="utility" x="456" y="746" font-size="11" font-weight="700" fill="#000" text-anchor="end" letter-spacing="0.8">LEFT / RIGHT  SWITCH</text>
<text class="utility" x="24" y="778" font-size="10" font-weight="400" fill="#000" text-anchor="start" letter-spacing="1.0">SCHEDULED TIMETABLE • UTC+8</text>
<text class="utility" x="456" y="778" font-size="10" font-weight="700" fill="#000" text-anchor="end" letter-spacing="1.2">HOME</text></g>
<text class="utility" x="34" y="746" font-size="14" font-weight="700" fill="#000" text-anchor="start" letter-spacing="0.6">BEFORE FIRST</text>
<rect x="245" y="427" width="178" height="294" fill="#000"/>
<rect x="248" y="430" width="172" height="288" fill="#fff"/>
<g transform="translate(248 430) scale(0.36)"><text class="utility" x="24" y="31" font-size="15" font-weight="700" fill="#000" text-anchor="start" letter-spacing="2.2">ON POINT</text>
<text class="utility" x="456" y="31" font-size="15" font-weight="700" fill="#000" text-anchor="end" letter-spacing="0.8">20:17</text>
<rect x="0" y="54" width="480" height="136" fill="#000"/>
<text x="24" y="92" font-size="29" font-weight="700" fill="#fff" text-anchor="start" letter-spacing="0.5">BALAGTAS</text>
<line x1="35" y1="105" x2="35" y2="132" stroke="#fff" stroke-width="4"/>
<polygon points="28,126 42,126 35,136" fill="#fff"/>
<text x="58" y="156" font-size="29" font-weight="700" fill="#fff" text-anchor="start" letter-spacing="0.5">TRINOMA</text>
<text class="utility" x="456" y="171" font-size="10" font-weight="700" fill="#fff" text-anchor="end" letter-spacing="1.6">PROVISIONAL</text>
<text x="24" y="278" font-size="57" font-weight="700" fill="#000" text-anchor="start" letter-spacing="-1.5">SERVICE</text>
<text x="24" y="337" font-size="57" font-weight="700" fill="#000" text-anchor="start" letter-spacing="-1.5">ENDED</text>
<rect x="24" y="373" width="432" height="5" fill="#000"/>
<text class="utility" x="24" y="419" font-size="13" font-weight="700" fill="#000" text-anchor="start" letter-spacing="1.5">NEXT SCHEDULED SERVICE</text>
<text x="24" y="504" font-size="74" font-weight="700" fill="#000" text-anchor="start" letter-spacing="-2">04:30</text>
<text x="456" y="499" font-size="18" font-weight="700" fill="#000" text-anchor="end" letter-spacing="1.0">THU 17 SEP</text>
<text class="utility" x="456" y="531" font-size="11" font-weight="400" fill="#000" text-anchor="end" letter-spacing="1.2">TIMETABLE RESUMES</text>
<text class="utility" x="24" y="611" font-size="15" font-weight="400" fill="#000" text-anchor="start" letter-spacing="0">No departure is implied before this time.</text>
<line x1="24" y1="718" x2="456" y2="718" stroke="#000" stroke-width="3"/>
<text class="utility" x="24" y="746" font-size="12" font-weight="700" fill="#000" text-anchor="start" letter-spacing="1.1">WED 16 SEP</text>
<text class="utility" x="456" y="746" font-size="11" font-weight="700" fill="#000" text-anchor="end" letter-spacing="0.8">LEFT / RIGHT  SWITCH</text>
<text class="utility" x="24" y="778" font-size="10" font-weight="400" fill="#000" text-anchor="start" letter-spacing="1.0">SCHEDULED TIMETABLE • UTC+8</text>
<text class="utility" x="456" y="778" font-size="10" font-weight="700" fill="#000" text-anchor="end" letter-spacing="1.2">HOME</text></g>
<text class="utility" x="248" y="746" font-size="14" font-weight="700" fill="#000" text-anchor="start" letter-spacing="0.6">SERVICE ENDED</text>
<rect x="459" y="427" width="178" height="294" fill="#000"/>
<rect x="462" y="430" width="172" height="288" fill="#fff"/>
<g transform="translate(462 430) scale(0.36)"><text class="utility" x="24" y="31" font-size="15" font-weight="700" fill="#000" text-anchor="start" letter-spacing="2.2">ON POINT</text>
<text class="utility" x="456" y="31" font-size="15" font-weight="700" fill="#000" text-anchor="end" letter-spacing="0.8">--:--</text>
<rect x="0" y="54" width="480" height="136" fill="#000"/>
<text x="24" y="92" font-size="29" font-weight="700" fill="#fff" text-anchor="start" letter-spacing="0.5">TRINOMA</text>
<line x1="35" y1="105" x2="35" y2="132" stroke="#fff" stroke-width="4"/>
<polygon points="28,126 42,126 35,136" fill="#fff"/>
<text x="58" y="156" font-size="29" font-weight="700" fill="#fff" text-anchor="start" letter-spacing="0.5">BALAGTAS</text>
<text class="utility" x="456" y="171" font-size="10" font-weight="700" fill="#fff" text-anchor="end" letter-spacing="1.6">PROVISIONAL</text>
<rect x="24" y="226" width="14" height="223" fill="#000"/>
<text x="64" y="296" font-size="56" font-weight="700" fill="#000" text-anchor="start" letter-spacing="-1">CLOCK</text>
<text x="64" y="357" font-size="56" font-weight="700" fill="#000" text-anchor="start" letter-spacing="-1">NOT SET</text>
<line x1="64" y1="390" x2="456" y2="390" stroke="#000" stroke-width="5"/>
<text class="utility" x="64" y="431" font-size="13" font-weight="700" fill="#000" text-anchor="start" letter-spacing="1.5">NO COUNTDOWN SHOWN</text>
<text x="64" y="500" font-size="18" font-weight="700" fill="#000" text-anchor="start" letter-spacing="0">Sync the RTC once in Settings.</text>
<text class="utility" x="64" y="535" font-size="14" font-weight="400" fill="#000" text-anchor="start" letter-spacing="0">On Point will not substitute a guessed time.</text>
<line x1="24" y1="718" x2="456" y2="718" stroke="#000" stroke-width="3"/>
<text class="utility" x="24" y="746" font-size="12" font-weight="700" fill="#000" text-anchor="start" letter-spacing="1.1">DATE UNAVAILABLE</text>
<text class="utility" x="456" y="746" font-size="11" font-weight="700" fill="#000" text-anchor="end" letter-spacing="0.8">LEFT / RIGHT  SWITCH</text>
<text class="utility" x="24" y="778" font-size="10" font-weight="400" fill="#000" text-anchor="start" letter-spacing="1.0">SCHEDULED TIMETABLE • UTC+8</text>
<text class="utility" x="456" y="778" font-size="10" font-weight="700" fill="#000" text-anchor="end" letter-spacing="1.2">HOME</text></g>
<text class="utility" x="462" y="746" font-size="14" font-weight="700" fill="#000" text-anchor="start" letter-spacing="0.6">CLOCK UNAVAILABLE</text>
</g>
</svg>
