<svg xmlns="http://www.w3.org/2000/svg" width="786" height="786" viewBox="0 0 786 786" data-output-width="668" data-output-height="786">
<style>
@font-face {
  font-family: 'Preview Noto Sans';
  src: url('file:///Users/almariano1/Downloads/project-on-point/lib/EpdFont/builtinFonts/source/NotoSans/NotoSans-Regular.ttf');
  font-weight: 400;
}
@font-face {
  font-family: 'Preview Noto Sans';
  src: url('file:///Users/almariano1/Downloads/project-on-point/lib/EpdFont/builtinFonts/source/NotoSans/NotoSans-Bold.ttf');
  font-weight: 700;
}
@font-face {
  font-family: 'Preview Ubuntu';
  src: url('file:///Users/almariano1/Downloads/project-on-point/lib/EpdFont/builtinFonts/source/Ubuntu/Ubuntu-Regular.ttf');
  font-weight: 400;
}
@font-face {
  font-family: 'Preview Ubuntu';
  src: url('file:///Users/almariano1/Downloads/project-on-point/lib/EpdFont/builtinFonts/source/Ubuntu/Ubuntu-Bold.ttf');
  font-weight: 700;
}
text { font-family: 'Preview Noto Sans', sans-serif; }
.utility { font-family: 'Preview Ubuntu', sans-serif; }
</style>
<rect width="786" height="786" fill="#fff"/>
<g transform="translate(59 0)">
<text x="34" y="48" font-size="25" font-weight="700" fill="#000" text-anchor="start" letter-spacing="0.3">PASS 2 — REFINED OPEN POSTER STATES</text>
<rect x="31" y="73" width="178" height="294" fill="#000"/>
<rect x="34" y="76" width="172" height="288" fill="#fff"/>
<g transform="translate(34 76) scale(0.36)"><text x="24" y="31" font-size="20" font-weight="700" fill="#000" text-anchor="start" letter-spacing="1.0">ON POINT</text>
<text class="utility" x="456" y="31" font-size="10" font-weight="700" fill="#000" text-anchor="end" letter-spacing="1.0">P2P SCHEDULE</text>
<line x1="24" y1="52" x2="456" y2="52" stroke="#000" stroke-width="5"/>
<text x="24" y="100" font-size="31" font-weight="700" fill="#000" text-anchor="start" letter-spacing="0.3">TRINOMA</text>
<line x1="24" y1="130" x2="438" y2="130" stroke="#000" stroke-width="4"/>
<polygon points="438,121 460,130 438,139" fill="#000"/>
<text x="456" y="178" font-size="31" font-weight="700" fill="#000" text-anchor="end" letter-spacing="0.3">BALAGTAS</text>
<text class="utility" x="24" y="218" font-size="11" font-weight="700" fill="#000" text-anchor="start" letter-spacing="1.4">UNTIL NEXT SCHEDULED DEPARTURE</text>
<rect x="78" y="252" width="51" height="51" fill="#000"/>
<rect x="24" y="306" width="51" height="51" fill="#000"/>
<rect x="78" y="306" width="51" height="51" fill="#000"/>
<rect x="78" y="360" width="51" height="51" fill="#000"/>
<rect x="78" y="414" width="51" height="51" fill="#000"/>
<rect x="24" y="468" width="51" height="51" fill="#000"/>
<rect x="78" y="468" width="51" height="51" fill="#000"/>
<rect x="132" y="468" width="51" height="51" fill="#000"/>
<rect x="208" y="252" width="51" height="51" fill="#000"/>
<rect x="262" y="252" width="51" height="51" fill="#000"/>
<rect x="316" y="252" width="51" height="51" fill="#000"/>
<rect x="208" y="306" width="51" height="51" fill="#000"/>
<rect x="316" y="306" width="51" height="51" fill="#000"/>
<rect x="208" y="360" width="51" height="51" fill="#000"/>
<rect x="262" y="360" width="51" height="51" fill="#000"/>
<rect x="316" y="360" width="51" height="51" fill="#000"/>
<rect x="208" y="414" width="51" height="51" fill="#000"/>
<rect x="316" y="414" width="51" height="51" fill="#000"/>
<rect x="208" y="468" width="51" height="51" fill="#000"/>
<rect x="262" y="468" width="51" height="51" fill="#000"/>
<rect x="316" y="468" width="51" height="51" fill="#000"/>
<text class="utility" x="442" y="500" font-size="15" font-weight="700" fill="#000" text-anchor="middle" letter-spacing="2.0" transform="rotate(-90 442 500)">MIN</text>
<line x1="24" y1="536" x2="456" y2="536" stroke="#000" stroke-width="5"/>
<text class="utility" x="24" y="570" font-size="11" font-weight="700" fill="#000" text-anchor="start" letter-spacing="1.4">SCHEDULED</text>
<text x="24" y="622" font-size="43" font-weight="700" fill="#000" text-anchor="start" letter-spacing="-1.0">21:30</text>
<text class="utility" x="236" y="570" font-size="11" font-weight="700" fill="#000" text-anchor="start" letter-spacing="1.4">NEXT</text>
<text x="236" y="613" font-size="20" font-weight="700" fill="#000" text-anchor="start" letter-spacing="0">22:00</text>
<text x="456" y="613" font-size="18" font-weight="700" fill="#000" text-anchor="end" letter-spacing="0">22:30 LAST</text>
<text class="utility" x="24" y="684" font-size="11" font-weight="700" fill="#000" text-anchor="start" letter-spacing="1.2">WEEKDAY / EVERY 30 MIN</text>
<line x1="24" y1="726" x2="456" y2="726" stroke="#000" stroke-width="3"/>
<text class="utility" x="24" y="758" font-size="11" font-weight="700" fill="#000" text-anchor="start" letter-spacing="1.0">WED 16 SEP</text>
<text class="utility" x="456" y="758" font-size="10" font-weight="700" fill="#000" text-anchor="end" letter-spacing="1.4">PROVISIONAL</text></g>
<text class="utility" x="34" y="392" font-size="14" font-weight="700" fill="#000" text-anchor="start" letter-spacing="0.6">NORMAL</text>
<rect x="245" y="73" width="178" height="294" fill="#000"/>
<rect x="248" y="76" width="172" height="288" fill="#fff"/>
<g transform="translate(248 76) scale(0.36)"><text x="24" y="31" font-size="20" font-weight="700" fill="#000" text-anchor="start" letter-spacing="1.0">ON POINT</text>
<text class="utility" x="456" y="31" font-size="10" font-weight="700" fill="#000" text-anchor="end" letter-spacing="1.0">P2P SCHEDULE</text>
<line x1="24" y1="52" x2="456" y2="52" stroke="#000" stroke-width="5"/>
<text x="24" y="100" font-size="31" font-weight="700" fill="#000" text-anchor="start" letter-spacing="0.3">TRINOMA</text>
<line x1="24" y1="130" x2="438" y2="130" stroke="#000" stroke-width="4"/>
<polygon points="438,121 460,130 438,139" fill="#000"/>
<text x="456" y="178" font-size="31" font-weight="700" fill="#000" text-anchor="end" letter-spacing="0.3">BALAGTAS</text>
<text class="utility" x="24" y="218" font-size="11" font-weight="700" fill="#000" text-anchor="start" letter-spacing="1.4">UNTIL NEXT SCHEDULED DEPARTURE</text>
<rect x="24" y="252" width="51" height="51" fill="#000"/>
<rect x="78" y="252" width="51" height="51" fill="#000"/>
<rect x="132" y="252" width="51" height="51" fill="#000"/>
<rect x="24" y="306" width="51" height="51" fill="#000"/>
<rect x="132" y="306" width="51" height="51" fill="#000"/>
<rect x="24" y="360" width="51" height="51" fill="#000"/>
<rect x="132" y="360" width="51" height="51" fill="#000"/>
<rect x="24" y="414" width="51" height="51" fill="#000"/>
<rect x="132" y="414" width="51" height="51" fill="#000"/>
<rect x="24" y="468" width="51" height="51" fill="#000"/>
<rect x="78" y="468" width="51" height="51" fill="#000"/>
<rect x="132" y="468" width="51" height="51" fill="#000"/>
<rect x="208" y="252" width="51" height="51" fill="#000"/>
<rect x="316" y="252" width="51" height="51" fill="#000"/>
<rect x="208" y="306" width="51" height="51" fill="#000"/>
<rect x="316" y="306" width="51" height="51" fill="#000"/>
<rect x="208" y="360" width="51" height="51" fill="#000"/>
<rect x="262" y="360" width="51" height="51" fill="#000"/>
<rect x="316" y="360" width="51" height="51" fill="#000"/>
<rect x="316" y="414" width="51" height="51" fill="#000"/>
<rect x="316" y="468" width="51" height="51" fill="#000"/>
<text class="utility" x="442" y="500" font-size="15" font-weight="700" fill="#000" text-anchor="middle" letter-spacing="2.0" transform="rotate(-90 442 500)">MIN</text>
<line x1="24" y1="536" x2="456" y2="536" stroke="#000" stroke-width="5"/>
<text class="utility" x="24" y="570" font-size="11" font-weight="700" fill="#000" text-anchor="start" letter-spacing="1.4">SCHEDULED</text>
<text x="24" y="622" font-size="43" font-weight="700" fill="#000" text-anchor="start" letter-spacing="-1.0">21:30</text>
<text class="utility" x="236" y="570" font-size="11" font-weight="700" fill="#000" text-anchor="start" letter-spacing="1.4">NEXT</text>
<text x="236" y="613" font-size="20" font-weight="700" fill="#000" text-anchor="start" letter-spacing="0">22:00</text>
<text x="456" y="613" font-size="18" font-weight="700" fill="#000" text-anchor="end" letter-spacing="0">22:30 LAST</text>
<text class="utility" x="24" y="684" font-size="11" font-weight="700" fill="#000" text-anchor="start" letter-spacing="1.2">WEEKDAY / EVERY 30 MIN</text>
<line x1="24" y1="726" x2="456" y2="726" stroke="#000" stroke-width="3"/>
<text class="utility" x="24" y="758" font-size="11" font-weight="700" fill="#000" text-anchor="start" letter-spacing="1.0">WED 16 SEP</text>
<text class="utility" x="456" y="758" font-size="10" font-weight="700" fill="#000" text-anchor="end" letter-spacing="1.4">PROVISIONAL</text></g>
<text class="utility" x="248" y="392" font-size="14" font-weight="700" fill="#000" text-anchor="start" letter-spacing="0.6">NEAR</text>
<rect x="459" y="73" width="178" height="294" fill="#000"/>
<rect x="462" y="76" width="172" height="288" fill="#fff"/>
<g transform="translate(462 76) scale(0.36)"><text x="24" y="31" font-size="20" font-weight="700" fill="#000" text-anchor="start" letter-spacing="1.0">ON POINT</text>
<text class="utility" x="456" y="31" font-size="10" font-weight="700" fill="#000" text-anchor="end" letter-spacing="1.0">P2P SCHEDULE</text>
<line x1="24" y1="52" x2="456" y2="52" stroke="#000" stroke-width="5"/>
<text x="24" y="100" font-size="31" font-weight="700" fill="#000" text-anchor="start" letter-spacing="0.3">TRINOMA</text>
<line x1="24" y1="130" x2="438" y2="130" stroke="#000" stroke-width="4"/>
<polygon points="438,121 460,130 438,139" fill="#000"/>
<text x="456" y="178" font-size="31" font-weight="700" fill="#000" text-anchor="end" letter-spacing="0.3">BALAGTAS</text>
<text class="utility" x="24" y="218" font-size="11" font-weight="700" fill="#000" text-anchor="start" letter-spacing="1.4">UNTIL NEXT SCHEDULED DEPARTURE</text>
<rect x="378" y="194" width="78" height="30" fill="#000"/>
<text class="utility" x="417" y="215" font-size="11" font-weight="700" fill="#fff" text-anchor="middle" letter-spacing="1.2">LAST</text>
<rect x="78" y="252" width="51" height="51" fill="#000"/>
<rect x="24" y="306" width="51" height="51" fill="#000"/>
<rect x="78" y="306" width="51" height="51" fill="#000"/>
<rect x="78" y="360" width="51" height="51" fill="#000"/>
<rect x="78" y="414" width="51" height="51" fill="#000"/>
<rect x="24" y="468" width="51" height="51" fill="#000"/>
<rect x="78" y="468" width="51" height="51" fill="#000"/>
<rect x="132" y="468" width="51" height="51" fill="#000"/>
<rect x="208" y="252" width="51" height="51" fill="#000"/>
<rect x="262" y="252" width="51" height="51" fill="#000"/>
<rect x="316" y="252" width="51" height="51" fill="#000"/>
<rect x="208" y="306" width="51" height="51" fill="#000"/>
<rect x="316" y="306" width="51" height="51" fill="#000"/>
<rect x="208" y="360" width="51" height="51" fill="#000"/>
<rect x="262" y="360" width="51" height="51" fill="#000"/>
<rect x="316" y="360" width="51" height="51" fill="#000"/>
<rect x="208" y="414" width="51" height="51" fill="#000"/>
<rect x="316" y="414" width="51" height="51" fill="#000"/>
<rect x="208" y="468" width="51" height="51" fill="#000"/>
<rect x="262" y="468" width="51" height="51" fill="#000"/>
<rect x="316" y="468" width="51" height="51" fill="#000"/>
<text class="utility" x="442" y="500" font-size="15" font-weight="700" fill="#000" text-anchor="middle" letter-spacing="2.0" transform="rotate(-90 442 500)">MIN</text>
<line x1="24" y1="536" x2="456" y2="536" stroke="#000" stroke-width="5"/>
<text class="utility" x="24" y="570" font-size="11" font-weight="700" fill="#000" text-anchor="start" letter-spacing="1.4">SCHEDULED</text>
<text x="24" y="622" font-size="43" font-weight="700" fill="#000" text-anchor="start" letter-spacing="-1.0">22:30</text>
<text class="utility" x="236" y="570" font-size="11" font-weight="700" fill="#000" text-anchor="start" letter-spacing="1.4">NEXT</text>
<text x="236" y="613" font-size="22" font-weight="700" fill="#000" text-anchor="start" letter-spacing="0">—</text>
<text class="utility" x="24" y="684" font-size="11" font-weight="700" fill="#000" text-anchor="start" letter-spacing="1.2">FINAL TRIP TODAY</text>
<line x1="24" y1="726" x2="456" y2="726" stroke="#000" stroke-width="3"/>
<text class="utility" x="24" y="758" font-size="11" font-weight="700" fill="#000" text-anchor="start" letter-spacing="1.0">WED 16 SEP</text>
<text class="utility" x="456" y="758" font-size="10" font-weight="700" fill="#000" text-anchor="end" letter-spacing="1.4">PROVISIONAL</text></g>
<text class="utility" x="462" y="392" font-size="14" font-weight="700" fill="#000" text-anchor="start" letter-spacing="0.6">LAST</text>
<rect x="31" y="427" width="178" height="294" fill="#000"/>
<rect x="34" y="430" width="172" height="288" fill="#fff"/>
<g transform="translate(34 430) scale(0.36)"><text x="24" y="31" font-size="20" font-weight="700" fill="#000" text-anchor="start" letter-spacing="1.0">ON POINT</text>
<text class="utility" x="456" y="31" font-size="10" font-weight="700" fill="#000" text-anchor="end" letter-spacing="1.0">P2P SCHEDULE</text>
<line x1="24" y1="52" x2="456" y2="52" stroke="#000" stroke-width="5"/>
<text x="24" y="100" font-size="31" font-weight="700" fill="#000" text-anchor="start" letter-spacing="0.3">BALAGTAS</text>
<line x1="24" y1="130" x2="438" y2="130" stroke="#000" stroke-width="4"/>
<polygon points="438,121 460,130 438,139" fill="#000"/>
<text x="456" y="178" font-size="31" font-weight="700" fill="#000" text-anchor="end" letter-spacing="0.3">TRINOMA</text>
<text class="utility" x="24" y="218" font-size="11" font-weight="700" fill="#000" text-anchor="start" letter-spacing="1.4">UNTIL NEXT SCHEDULED DEPARTURE</text>
<rect x="344" y="194" width="112" height="30" fill="#000"/>
<text class="utility" x="400" y="215" font-size="11" font-weight="700" fill="#fff" text-anchor="middle" letter-spacing="1.2">FIRST TRIP</text>
<rect x="24" y="252" width="51" height="51" fill="#000"/>
<rect x="132" y="252" width="51" height="51" fill="#000"/>
<rect x="24" y="306" width="51" height="51" fill="#000"/>
<rect x="132" y="306" width="51" height="51" fill="#000"/>
<rect x="24" y="360" width="51" height="51" fill="#000"/>
<rect x="78" y="360" width="51" height="51" fill="#000"/>
<rect x="132" y="360" width="51" height="51" fill="#000"/>
<rect x="132" y="414" width="51" height="51" fill="#000"/>
<rect x="132" y="468" width="51" height="51" fill="#000"/>
<rect x="208" y="252" width="51" height="51" fill="#000"/>
<rect x="262" y="252" width="51" height="51" fill="#000"/>
<rect x="316" y="252" width="51" height="51" fill="#000"/>
<rect x="208" y="306" width="51" height="51" fill="#000"/>
<rect x="316" y="306" width="51" height="51" fill="#000"/>
<rect x="208" y="360" width="51" height="51" fill="#000"/>
<rect x="316" y="360" width="51" height="51" fill="#000"/>
<rect x="208" y="414" width="51" height="51" fill="#000"/>
<rect x="316" y="414" width="51" height="51" fill="#000"/>
<rect x="208" y="468" width="51" height="51" fill="#000"/>
<rect x="262" y="468" width="51" height="51" fill="#000"/>
<rect x="316" y="468" width="51" height="51" fill="#000"/>
<text class="utility" x="442" y="500" font-size="15" font-weight="700" fill="#000" text-anchor="middle" letter-spacing="2.0" transform="rotate(-90 442 500)">MIN</text>
<line x1="24" y1="536" x2="456" y2="536" stroke="#000" stroke-width="5"/>
<text class="utility" x="24" y="570" font-size="11" font-weight="700" fill="#000" text-anchor="start" letter-spacing="1.4">SCHEDULED</text>
<text x="24" y="622" font-size="43" font-weight="700" fill="#000" text-anchor="start" letter-spacing="-1.0">04:30</text>
<text class="utility" x="236" y="570" font-size="11" font-weight="700" fill="#000" text-anchor="start" letter-spacing="1.4">NEXT</text>
<text x="236" y="613" font-size="20" font-weight="700" fill="#000" text-anchor="start" letter-spacing="0">05:00</text>
<text x="456" y="613" font-size="18" font-weight="700" fill="#000" text-anchor="end" letter-spacing="0">05:30</text>
<text class="utility" x="24" y="684" font-size="11" font-weight="700" fill="#000" text-anchor="start" letter-spacing="1.2">FIRST SCHEDULED TRIP</text>
<line x1="24" y1="726" x2="456" y2="726" stroke="#000" stroke-width="3"/>
<text class="utility" x="24" y="758" font-size="11" font-weight="700" fill="#000" text-anchor="start" letter-spacing="1.0">WED 16 SEP</text>
<text class="utility" x="456" y="758" font-size="10" font-weight="700" fill="#000" text-anchor="end" letter-spacing="1.4">PROVISIONAL</text></g>
<text class="utility" x="34" y="746" font-size="14" font-weight="700" fill="#000" text-anchor="start" letter-spacing="0.6">BEFORE FIRST</text>
<rect x="245" y="427" width="178" height="294" fill="#000"/>
<rect x="248" y="430" width="172" height="288" fill="#fff"/>
<g transform="translate(248 430) scale(0.36)"><text x="24" y="31" font-size="20" font-weight="700" fill="#000" text-anchor="start" letter-spacing="1.0">ON POINT</text>
<text class="utility" x="456" y="31" font-size="10" font-weight="700" fill="#000" text-anchor="end" letter-spacing="1.0">P2P SCHEDULE</text>
<line x1="24" y1="52" x2="456" y2="52" stroke="#000" stroke-width="5"/>
<text x="24" y="100" font-size="31" font-weight="700" fill="#000" text-anchor="start" letter-spacing="0.3">BALAGTAS</text>
<line x1="24" y1="130" x2="438" y2="130" stroke="#000" stroke-width="4"/>
<polygon points="438,121 460,130 438,139" fill="#000"/>
<text x="456" y="178" font-size="31" font-weight="700" fill="#000" text-anchor="end" letter-spacing="0.3">TRINOMA</text>
<text x="24" y="296" font-size="60" font-weight="700" fill="#000" text-anchor="start" letter-spacing="-1.5">SERVICE</text>
<text x="24" y="358" font-size="60" font-weight="700" fill="#000" text-anchor="start" letter-spacing="-1.5">ENDED</text>
<line x1="24" y1="392" x2="456" y2="392" stroke="#000" stroke-width="5"/>
<text class="utility" x="24" y="434" font-size="11" font-weight="700" fill="#000" text-anchor="start" letter-spacing="1.4">NEXT SCHEDULED</text>
<text x="24" y="520" font-size="78" font-weight="700" fill="#000" text-anchor="start" letter-spacing="-2.0">04:30</text>
<text x="456" y="487" font-size="18" font-weight="700" fill="#000" text-anchor="end" letter-spacing="0.8">THU 17 SEP</text>
<text class="utility" x="456" y="520" font-size="11" font-weight="700" fill="#000" text-anchor="end" letter-spacing="1.2">FIRST TRIP</text>
<text class="utility" x="24" y="620" font-size="11" font-weight="700" fill="#000" text-anchor="start" letter-spacing="1.0">NO MORE TRIPS TODAY</text>
<line x1="24" y1="726" x2="456" y2="726" stroke="#000" stroke-width="3"/>
<text class="utility" x="24" y="758" font-size="11" font-weight="700" fill="#000" text-anchor="start" letter-spacing="1.0">WED 16 SEP</text>
<text class="utility" x="456" y="758" font-size="10" font-weight="700" fill="#000" text-anchor="end" letter-spacing="1.4">PROVISIONAL</text></g>
<text class="utility" x="248" y="746" font-size="14" font-weight="700" fill="#000" text-anchor="start" letter-spacing="0.6">SERVICE ENDED</text>
<rect x="459" y="427" width="178" height="294" fill="#000"/>
<rect x="462" y="430" width="172" height="288" fill="#fff"/>
<g transform="translate(462 430) scale(0.36)"><text x="24" y="31" font-size="20" font-weight="700" fill="#000" text-anchor="start" letter-spacing="1.0">ON POINT</text>
<text class="utility" x="456" y="31" font-size="10" font-weight="700" fill="#000" text-anchor="end" letter-spacing="1.0">P2P SCHEDULE</text>
<line x1="24" y1="52" x2="456" y2="52" stroke="#000" stroke-width="5"/>
<text x="24" y="100" font-size="31" font-weight="700" fill="#000" text-anchor="start" letter-spacing="0.3">TRINOMA</text>
<line x1="24" y1="130" x2="438" y2="130" stroke="#000" stroke-width="4"/>
<polygon points="438,121 460,130 438,139" fill="#000"/>
<text x="456" y="178" font-size="31" font-weight="700" fill="#000" text-anchor="end" letter-spacing="0.3">BALAGTAS</text>
<rect x="24" y="246" width="12" height="214" fill="#000"/>
<text x="64" y="312" font-size="57" font-weight="700" fill="#000" text-anchor="start" letter-spacing="-1.2">CLOCK</text>
<text x="64" y="373" font-size="57" font-weight="700" fill="#000" text-anchor="start" letter-spacing="-1.2">NOT SET</text>
<line x1="64" y1="408" x2="456" y2="408" stroke="#000" stroke-width="5"/>
<text class="utility" x="64" y="448" font-size="11" font-weight="700" fill="#000" text-anchor="start" letter-spacing="1.4">NO COUNTDOWN SHOWN</text>
<text x="64" y="520" font-size="18" font-weight="700" fill="#000" text-anchor="start" letter-spacing="0">Sync the RTC once in Settings.</text>
<text class="utility" x="64" y="557" font-size="14" font-weight="400" fill="#000" text-anchor="start" letter-spacing="0">On Point never substitutes a guessed time.</text>
<line x1="24" y1="726" x2="456" y2="726" stroke="#000" stroke-width="3"/>
<text class="utility" x="24" y="758" font-size="11" font-weight="700" fill="#000" text-anchor="start" letter-spacing="1.0">RTC REQUIRED</text>
<text class="utility" x="456" y="758" font-size="10" font-weight="700" fill="#000" text-anchor="end" letter-spacing="1.4">PROVISIONAL</text></g>
<text class="utility" x="462" y="746" font-size="14" font-weight="700" fill="#000" text-anchor="start" letter-spacing="0.6">CLOCK UNAVAILABLE</text>
</g>
</svg>
